<?xml version="1.0" encoding="UTF-8"?>
<svg width="1024" height="1024" viewBox="0 0 1024 1024" fill="none" xmlns="http://www.w3.org/2000/svg">
  <defs>
    <linearGradient id="aurafitGradient" x1="180" y1="160" x2="820" y2="860" gradientUnits="userSpaceOnUse">
      <stop stop-color="#8B5CF6"/>
      <stop offset="1" stop-color="#5B8CFF"/>
    </linearGradient>

    <filter id="softShadow" x="-20%" y="-20%" width="140%" height="140%">
      <feDropShadow dx="0" dy="14" stdDeviation="24" flood-color="#000000" flood-opacity="0.28"/>
    </filter>
  </defs>

  <rect width="1024" height="1024" rx="240" fill="#080808"/>

  <g filter="url(#softShadow)">
    <path d="M512 160C560 160 598 182 624 224L790 512C806 540 814 566 814 590C814 670 754 732 672 732H352C270 732 210 670 210 590C210 566 218 540 234 512L400 224C426 182 464 160 512 160Z"
          fill="url(#aurafitGradient)"/>

    <path d="M512 278C544 278 570 304 570 336C570 368 544 394 512 394C480 394 454 368 454 336C454 304 480 278 512 278Z"
          fill="#080808"/>

    <path d="M396 580C434 522 484 490 548 486C598 482 640 502 680 542"
          stroke="#080808"
          stroke-width="42"
          stroke-linecap="round"/>

    <path d="M474 430L390 610"
          stroke="#080808"
          stroke-width="42"
          stroke-linecap="round"/>

    <path d="M554 430L638 610"
          stroke="#080808"
          stroke-width="42"
          stroke-linecap="round"/>
  </g>

  <text x="512" y="860"
        text-anchor="middle"
        font-family="Inter, Arial, sans-serif"
        font-size="92"
        font-weight="700"
        letter-spacing="-4"
        fill="#F5F5F5">
    AURAFIT
  </text>

  <text x="512" y="922"
        text-anchor="middle"
        font-family="Inter, Arial, sans-serif"
        font-size="28"
        font-weight="500"
        letter-spacing="8"
        fill="#7A7A7A">
    TRAIN SMART • LIVE STRONG
  </text>
</svg>
